<?xml version="1.0" encoding="utf-8"?>
<!-- Svg Vector Icons : http://www.onlinewebfonts.com/icon -->
<!DOCTYPE svg PUBLIC "-//W3C//DTD SVG 1.1//EN" "http://www.w3.org/Graphics/SVG/1.1/DTD/svg11.dtd">
<svg version="1.1" xmlns="http://www.w3.org/2000/svg" xmlns:xlink="http://www.w3.org/1999/xlink" x="0px" y="0px" viewBox="0 0 1000 1000" enable-background="new 0 0 1000 1000" xml:space="preserve">
<metadata> Svg Vector Icons : http://www.onlinewebfonts.com/icon </metadata>
<g><g transform="translate(0.000000,511.000000) scale(0.100000,-0.100000)"><path d="M1916.2,4385.4c-87-53.1-140.1-181.2-116-277.8c7.2-33.8,48.3-91.8,89.4-125.6c67.6-58,89.4-62.8,210.2-50.7c125.6,14.5,144.9,7.3,362.4-106.3c285.1-152.2,695.7-425.2,966.3-642.6c533.9-425.2,1193.4-1186.1,1454.3-1669.3c33.8-60.4,58-77.3,116-77.3c58,0,84.6,16.9,116,74.9c190.9,347.9,560.5,819,947,1207.9c446.9,449.3,951.8,826.2,1473.6,1104c217.4,116,236.7,123.2,362.4,108.7c120.8-12.1,142.5-7.2,210.2,50.7c94.2,79.7,118.4,176.4,70,287.5c-43.5,108.7-159.4,171.5-270.5,152.2c-79.7-16.9-202.9-132.9-202.9-195.7c0-19.3-123.2-96.6-270.6-173.9c-869.7-451.7-1804.6-1287.6-2321.6-2075.2c-55.6-84.6-106.3-154.6-113.6-154.6c-7.2,0-58,70.1-113.5,154.6c-285.1,432.4-843.1,1036.4-1297.3,1401.2c-318.9,256.1-717.5,519.4-1034,681.3c-149.8,74.9-260.9,147.4-260.9,166.7s-29,67.6-65.2,108.7C2140.9,4431.3,2020.1,4450.6,1916.2,4385.4z"/><path d="M650.3,3288.7c-362.4-82.1-584.6-372-546-710.3c31.4-275.4,154.6-500.1,521.8-956.6c362.4-449.3,456.6-703,420.3-1152.3c-43.5-567.7,147.4-947,582.2-1162l157-77.3l-118.4-128c-169.1-183.6-306.8-405.8-367.2-587c-72.5-217.4-55.6-603.9,38.7-896.3c135.3-420.3,376.9-821.4,698.1-1154.7c236.8-246.4,425.2-386.5,695.8-509.7c263.3-123.2,417.9-157,695.7-159.4c212.6,0,244,7.2,393.8,79.7c205.3,101.5,427.6,318.9,620.9,616c171.5,258.5,437.2,773.1,497.6,968.7c24.2,74.9,48.3,135.3,55.6,135.3c7.3,0,41.1-72.5,72.5-161.9c178.8-517,618.5-1207.9,908.4-1432.6c217.4-166.7,328.5-205.4,603.9-202.9c273,0,490.4,55.6,761,190.9c560.5,282.6,1094.3,944.6,1316.6,1630.6c94.2,292.3,111.1,654.7,41.1,886.6c-58,183.6-193.3,403.4-369.6,596.7l-118.4,128l154.6,77.3c186,91.8,357.5,239.2,439.6,379.3c116,195.7,135.3,304.4,142.5,782.7c9.7,616,36.2,681.3,488,1239.3c379.3,463.8,521.8,821.4,442.1,1104c-101.5,364.8-466.3,548.4-951.8,485.6c-430-58-864.8-210.2-1456.7-512.1c-884.2-446.9-1708-1106.4-2326.4-1857.7c-70.1-87-135.3-157-145-157c-9.7,0-96.6,99-198.1,217.4c-227.1,270.6-736.8,768.2-1009.8,985.6C2706.1,2839.3,1288.1,3431.2,650.3,3288.7z M1454.8,2409.3c947-314.1,2043.7-1072.6,2739.5-1898.8c321.3-384.1,289.9-268.2,347.9-1249c60.4-992.9,48.3-1210.3-72.5-1538.9c-251.2-678.8-606.4-1096.7-985.6-1157.1c-128-19.4-372,43.5-538.7,142.5c-193.3,113.6-521.8,454.2-659.5,686.1c-154.6,260.9-258.5,555.6-258.5,746.5c0,120.8,12.1,164.3,74.9,263.3c101.5,159.5,323.7,389,606.4,620.9c306.8,253.7,359.9,374.5,263.3,589.5c-65.2,145-164.3,202.9-384.1,229.5c-345.5,43.5-688.5,154.6-746.5,244c-9.7,16.9-19.3,222.3-21.7,454.2c-4.8,739.2-79.7,918-719.9,1736.9c-87,111.1-159.4,215-159.4,231.9C940.2,2554.3,1133.5,2515.6,1454.8,2409.3z M8970.3,2370.7c-50.7-67.7-157-207.8-239.2-309.2C8521,1803,8436.4,1674.9,8342.2,1472c-130.5-282.7-159.5-451.8-164.3-930.1c-2.4-231.9-12.1-437.3-24.2-454.2c-53.1-89.4-396.2-200.5-744.1-244c-219.8-26.6-318.9-84.6-384.1-229.5c-91.8-202.9-33.8-355.1,207.8-543.5c256.1-202.9,533.9-478.4,640.2-637.8c87-128,96.6-159.4,96.6-292.3c0-190.8-101.5-485.6-258.5-746.5c-137.7-231.9-466.2-572.5-659.5-686.1c-166.7-99-410.7-161.9-538.7-142.5c-379.3,60.4-734.4,478.3-985.7,1157.1c-123.2,333.4-132.9,548.4-72.5,1538.9c60.4,980.8,26.6,864.9,347.9,1249c543.6,645,1270.7,1210.3,2070.3,1608.9c512.1,256.1,1149.9,471.1,1178.9,398.6C9057.3,2505.9,9021,2440.7,8970.3,2370.7z"/></g></g>
</svg>